<?xml version="1.0" standalone="no"?>
<!DOCTYPE svg PUBLIC "-//W3C//DTD SVG 20010904//EN"
 "http://www.w3.org/TR/2001/REC-SVG-20010904/DTD/svg10.dtd">
<svg version="1.0" xmlns="http://www.w3.org/2000/svg"
 width="256.000000pt" height="256.000000pt" viewBox="0 0 256.000000 256.000000"
 preserveAspectRatio="xMidYMid meet">

<g transform="translate(0.000000,256.000000) scale(0.100000,-0.100000)"
fill="#000000" stroke="none">
<path d="M946 2364 c-133 -32 -265 -136 -323 -255 -40 -80 -52 -135 -53 -224
0 -44 -5 -78 -14 -91 -40 -57 -38 -148 5 -203 14 -17 19 -40 19 -86 0 -35 9
-92 20 -127 11 -34 20 -72 20 -83 0 -11 -21 -56 -46 -100 -51 -88 -74 -145
-74 -181 0 -19 -8 -25 -38 -34 -55 -14 -102 -49 -124 -91 -16 -31 -20 -85 -33
-420 -8 -211 -15 -394 -15 -406 0 -13 9 -32 20 -43 20 -20 33 -20 947 -20 890
0 929 1 959 19 66 40 70 127 6 146 l-32 9 0 387 c0 366 -1 388 -19 410 -19 24
-20 24 -278 27 l-259 3 -13 48 c-7 27 -33 84 -59 127 -53 90 -58 129 -29 229
9 32 17 83 17 112 0 39 6 61 25 89 32 47 34 124 5 172 -15 24 -20 50 -20 100
0 133 -47 248 -138 345 -125 131 -302 183 -476 141z m332 -453 c15 -10 46 -28
70 -40 38 -19 42 -25 42 -59 l0 -37 -115 3 c-126 4 -155 -5 -177 -54 -16 -34
-48 -30 -73 8 l-20 32 65 32 c36 18 90 55 120 83 30 28 57 50 58 51 2 0 16 -8
30 -19z m238 -135 c29 -29 34 -41 34 -81 0 -40 -5 -52 -34 -81 -19 -19 -43
-34 -55 -34 -20 0 -21 5 -21 115 0 110 1 115 21 115 12 0 36 -15 55 -34z
m-826 -103 c0 -88 -1 -93 -21 -93 -12 0 -36 15 -55 34 -29 29 -34 41 -34 79 0
29 7 53 20 70 18 23 23 24 55 14 l35 -10 0 -94z m290 38 c5 -11 10 -40 10 -66
0 -35 -6 -51 -25 -70 -21 -22 -33 -25 -95 -25 -62 0 -74 3 -95 25 -20 19 -25
34 -25 78 0 29 5 58 12 65 8 8 47 12 110 12 86 0 98 -2 108 -19z m390 0 c5
-11 10 -40 10 -66 0 -35 -6 -51 -25 -70 -21 -22 -33 -25 -93 -25 -98 0 -122
20 -122 99 0 31 5 62 12 69 8 8 47 12 110 12 86 0 98 -2 108 -19z m-280 -97
c0 -29 8 -44 39 -75 38 -39 39 -39 119 -39 44 0 92 4 106 10 25 9 26 8 20 -18
-11 -47 -56 -122 -93 -154 -61 -54 -135 -81 -217 -81 -62 0 -83 5 -138 32 -88
43 -150 116 -172 205 -6 26 -5 27 14 17 28 -15 171 -14 202 2 33 17 70 74 70
108 0 24 4 29 25 29 22 0 25 -4 25 -36z m-74 -407 c48 -8 73 -7 121 4 l61 15
5 -52 c7 -67 26 -95 87 -128 28 -15 50 -31 50 -37 0 -5 -53 -9 -124 -9 -150 0
-171 -10 -182 -91 -6 -41 -10 -49 -28 -49 -53 0 -188 89 -216 141 -8 14 -2 21
34 37 68 33 96 73 96 139 0 49 2 54 18 48 9 -4 44 -12 78 -18z m1112 -265 c9
-7 12 -91 10 -388 l-3 -379 -520 0 -520 0 -3 375 c-1 206 0 381 3 387 3 10
114 13 512 13 279 0 514 -4 521 -8z m-1650 -621 l102 -33 0 -37 c0 -20 5 -42
12 -49 8 -8 55 -12 148 -12 132 0 136 1 185 30 57 34 105 40 105 13 0 -10 3
-28 6 -40 5 -18 2 -23 -13 -23 -10 0 -29 -7 -42 -16 -20 -14 -23 -23 -18 -60
l5 -44 -309 0 c-176 0 -310 4 -313 9 -11 18 6 302 18 299 6 -2 57 -18 114 -37z
m166 -43 c4 -24 3 -38 -4 -38 -5 0 -10 19 -10 42 0 49 5 47 14 -4z m1573 -175
c2 -6 -5 -21 -16 -32 -21 -21 -29 -21 -584 -21 -493 0 -565 2 -585 16 -12 8
-22 24 -22 34 0 19 13 20 602 17 453 -1 602 -5 605 -14z"/>
<path d="M870 1675 c-26 -32 13 -81 48 -59 34 22 22 74 -18 74 -10 0 -23 -7
-30 -15z"/>
<path d="M1207 1683 c-12 -12 -7 -50 8 -63 17 -14 51 -5 59 16 13 35 -41 73
-67 47z"/>
<path d="M953 1473 c-24 -9 -13 -43 20 -63 65 -40 146 -36 195 10 44 41 14 75
-33 38 -37 -29 -101 -29 -140 -2 -16 12 -36 19 -42 17z"/>
<path d="M1525 795 c-59 -22 -106 -65 -140 -126 -77 -141 -1 -320 154 -366 95
-27 190 -2 259 68 51 52 67 95 67 179 0 84 -16 127 -67 179 -68 70 -186 98
-273 66z"/>
<path d="M383 1403 c-7 -2 -13 -16 -13 -29 0 -19 -5 -24 -24 -24 -28 0 -42
-26 -25 -46 6 -8 20 -14 30 -14 14 0 19 -7 19 -26 0 -22 4 -25 28 -22 19 2 28
9 30 25 2 14 11 23 25 25 32 4 31 52 0 56 -14 2 -23 10 -23 21 0 17 -18 42
-29 40 -4 0 -12 -3 -18 -6z"/>
</g>
</svg>
